<?xml version="1.0" encoding="UTF-8"?>
<svg id="Layer_1" xmlns="http://www.w3.org/2000/svg" version="1.1" viewBox="0 0 49.7 49.7">
  <!-- Generator: Adobe Illustrator 29.3.0, SVG Export Plug-In . SVG Version: 2.1.0 Build 146)  -->
  <defs>
    <style>
      .st0 {
        fill: #fff;
      }
    </style>
  </defs>
  <path class="st0" d="M24.8,18.9c-3.3,0-6,2.7-6,6s2.7,6,6,6,6-2.7,6-6-2.7-6-6-6Z"/>
  <path class="st0" d="M31.4,10.5h-13.1c-4.3,0-7.8,3.5-7.8,7.8v13.1c0,4.3,3.5,7.8,7.8,7.8h13.1c4.3,0,7.8-3.5,7.8-7.8v-13.1c0-4.3-3.5-7.8-7.8-7.8ZM24.8,33.4c-4.7,0-8.6-3.8-8.6-8.6s3.8-8.6,8.6-8.6,8.6,3.8,8.6,8.6-3.8,8.6-8.6,8.6ZM34.3,17.6c-1.2,0-2.2-1-2.2-2.2s1-2.2,2.2-2.2,2.2,1,2.2,2.2-1,2.2-2.2,2.2Z"/>
  <path class="st0" d="M35,.6H14.7C6.9.6.6,6.9.6,14.7v20.3c0,7.8,6.3,14.1,14.1,14.1h20.3c7.8,0,14.1-6.3,14.1-14.1V14.7c0-7.8-6.3-14.1-14.1-14.1ZM41.8,31.4c0,5.7-4.7,10.4-10.4,10.4h-13.1c-5.7,0-10.4-4.7-10.4-10.4v-13.1c0-5.7,4.7-10.4,10.4-10.4h13.1c5.7,0,10.4,4.7,10.4,10.4v13.1Z"/>
</svg>